<mxfile host="app.diagrams.net" modified="2024-03-07T08:49:28.542Z" agent="Mozilla/5.0 (Windows NT 10.0; Win64; x64) AppleWebKit/537.36 (KHTML, like Gecko) Chrome/122.0.0.0 Safari/537.36" etag="t7qVHMsLqwCfP7dxJWUR" version="24.0.2" type="device">
  <diagram name="Page-1" id="IqefxmWPf4GTUXDHwcOA">
    <mxGraphModel dx="446" dy="175" grid="1" gridSize="10" guides="1" tooltips="1" connect="1" arrows="1" fold="1" page="1" pageScale="1" pageWidth="850" pageHeight="1100" math="0" shadow="0">
      <root>
        <mxCell id="0" />
        <mxCell id="1" parent="0" />
        <mxCell id="liFpd1inJpiL318Wq8IT-9" value="" style="rounded=0;whiteSpace=wrap;html=1;" parent="1" vertex="1">
          <mxGeometry x="230" y="50" width="240" height="460" as="geometry" />
        </mxCell>
        <mxCell id="liFpd1inJpiL318Wq8IT-1" value="Sign-Up" style="ellipse;whiteSpace=wrap;html=1;" parent="1" vertex="1">
          <mxGeometry x="307.5" y="140" width="80" height="40" as="geometry" />
        </mxCell>
        <mxCell id="liFpd1inJpiL318Wq8IT-2" value="Login" style="ellipse;whiteSpace=wrap;html=1;" parent="1" vertex="1">
          <mxGeometry x="305" y="186" width="90" height="40" as="geometry" />
        </mxCell>
        <mxCell id="liFpd1inJpiL318Wq8IT-3" value="Add to cart" style="ellipse;whiteSpace=wrap;html=1;" parent="1" vertex="1">
          <mxGeometry x="302.5" y="237" width="95" height="40" as="geometry" />
        </mxCell>
        <mxCell id="liFpd1inJpiL318Wq8IT-4" value="checkout" style="ellipse;whiteSpace=wrap;html=1;" parent="1" vertex="1">
          <mxGeometry x="307.5" y="288" width="90" height="40" as="geometry" />
        </mxCell>
        <mxCell id="liFpd1inJpiL318Wq8IT-5" value="view about ,&lt;br&gt;Contact ,&lt;br&gt;shop now,&lt;div&gt;Cart&lt;br&gt;&lt;/div&gt;" style="ellipse;whiteSpace=wrap;html=1;" parent="1" vertex="1">
          <mxGeometry x="290" y="338" width="130" height="70" as="geometry" />
        </mxCell>
        <mxCell id="liFpd1inJpiL318Wq8IT-6" value="Manage Food product,&lt;div&gt;Orders, Users, Comments&lt;/div&gt;" style="ellipse;whiteSpace=wrap;html=1;" parent="1" vertex="1">
          <mxGeometry x="272.5" y="415" width="160" height="60" as="geometry" />
        </mxCell>
        <mxCell id="liFpd1inJpiL318Wq8IT-10" value="Customer" style="shape=umlActor;verticalLabelPosition=bottom;verticalAlign=top;html=1;outlineConnect=0;" parent="1" vertex="1">
          <mxGeometry x="110" y="259" width="30" height="62" as="geometry" />
        </mxCell>
        <mxCell id="liFpd1inJpiL318Wq8IT-11" value="Admin" style="shape=umlActor;verticalLabelPosition=bottom;verticalAlign=top;html=1;outlineConnect=0;" parent="1" vertex="1">
          <mxGeometry x="575" y="250" width="30" height="60" as="geometry" />
        </mxCell>
        <mxCell id="liFpd1inJpiL318Wq8IT-12" value="" style="endArrow=none;html=1;rounded=0;exitX=1;exitY=0.5;exitDx=0;exitDy=0;" parent="1" source="liFpd1inJpiL318Wq8IT-6" edge="1">
          <mxGeometry width="50" height="50" relative="1" as="geometry">
            <mxPoint x="450" y="340" as="sourcePoint" />
            <mxPoint x="560" y="280" as="targetPoint" />
          </mxGeometry>
        </mxCell>
        <mxCell id="liFpd1inJpiL318Wq8IT-13" value="" style="endArrow=none;html=1;rounded=0;entryX=0;entryY=0.5;entryDx=0;entryDy=0;" parent="1" target="liFpd1inJpiL318Wq8IT-1" edge="1">
          <mxGeometry width="50" height="50" relative="1" as="geometry">
            <mxPoint x="160" y="290" as="sourcePoint" />
            <mxPoint x="500" y="290" as="targetPoint" />
          </mxGeometry>
        </mxCell>
        <mxCell id="liFpd1inJpiL318Wq8IT-14" value="" style="endArrow=none;html=1;rounded=0;entryX=0;entryY=0.5;entryDx=0;entryDy=0;" parent="1" target="liFpd1inJpiL318Wq8IT-2" edge="1">
          <mxGeometry width="50" height="50" relative="1" as="geometry">
            <mxPoint x="160" y="290" as="sourcePoint" />
            <mxPoint x="318" y="170" as="targetPoint" />
          </mxGeometry>
        </mxCell>
        <mxCell id="liFpd1inJpiL318Wq8IT-15" value="" style="endArrow=none;html=1;rounded=0;entryX=0;entryY=0.5;entryDx=0;entryDy=0;" parent="1" target="liFpd1inJpiL318Wq8IT-3" edge="1">
          <mxGeometry width="50" height="50" relative="1" as="geometry">
            <mxPoint x="160" y="290" as="sourcePoint" />
            <mxPoint x="315" y="216" as="targetPoint" />
          </mxGeometry>
        </mxCell>
        <mxCell id="liFpd1inJpiL318Wq8IT-16" value="" style="endArrow=none;html=1;rounded=0;" parent="1" target="liFpd1inJpiL318Wq8IT-4" edge="1">
          <mxGeometry width="50" height="50" relative="1" as="geometry">
            <mxPoint x="160" y="290" as="sourcePoint" />
            <mxPoint x="313" y="267" as="targetPoint" />
          </mxGeometry>
        </mxCell>
        <mxCell id="liFpd1inJpiL318Wq8IT-17" value="" style="endArrow=none;html=1;rounded=0;entryX=0;entryY=0.5;entryDx=0;entryDy=0;" parent="1" target="liFpd1inJpiL318Wq8IT-5" edge="1">
          <mxGeometry width="50" height="50" relative="1" as="geometry">
            <mxPoint x="160" y="290" as="sourcePoint" />
            <mxPoint x="318" y="314" as="targetPoint" />
          </mxGeometry>
        </mxCell>
        <mxCell id="liFpd1inJpiL318Wq8IT-18" value="" style="endArrow=none;html=1;rounded=0;exitX=1;exitY=0.5;exitDx=0;exitDy=0;" parent="1" source="liFpd1inJpiL318Wq8IT-2" edge="1">
          <mxGeometry width="50" height="50" relative="1" as="geometry">
            <mxPoint x="443" y="455" as="sourcePoint" />
            <mxPoint x="560" y="280" as="targetPoint" />
          </mxGeometry>
        </mxCell>
        <mxCell id="liFpd1inJpiL318Wq8IT-19" value="&lt;font style=&quot;font-size: 14px;&quot;&gt;Food Ordering Portal&lt;/font&gt;" style="text;html=1;align=center;verticalAlign=middle;whiteSpace=wrap;rounded=0;" parent="1" vertex="1">
          <mxGeometry x="312.5" y="60" width="70" height="70" as="geometry" />
        </mxCell>
      </root>
    </mxGraphModel>
  </diagram>
</mxfile>
